# xmcd
#
# Track frame offsets: 
#        150
#        16480
#        37380
#        54120
#        69155
#        89892
#        108587
#        124277
#        141312
#        154877
#        166970
#        186347
#        203610
#        223735
#        239552
#        259250
#        277245
#        295207
#        310455
#        324997
#
# Disc length: 4608 seconds
#
# Revision: 0
# Processed by: cddbd v1.5.2PL0 Copyright (c) Steve Scherf et al.
# Submitted via: ExactAudioCopy v1.0b3
#
DISCID=4311fe14
DTITLE=石原裕次郎 - 永遠の歌声：石原裕次郎のすべて　ＶＯＬ．１４
DYEAR=1989
DGENRE=JPop
TTITLE0=昭和たずねびと
TTITLE1=それぞれの旅
TTITLE2=行先
TTITLE3=嘆きの天使
TTITLE4=引き潮
TTITLE5=恋無情
TTITLE6=旅路の町
TTITLE7=紫の雨
TTITLE8=クロスオーバー・ラブ
TTITLE9=想い出のカルナバル
TTITLE10=きまぐれ通りはたそがれて
TTITLE11=ここへおいでよ
TTITLE12=港町の少女
TTITLE13=みぞれの酒場
TTITLE14=海峡メルヘン
TTITLE15=おもいで
TTITLE16=こぬか雨の女
TTITLE17=愛の絆
TTITLE18=想い出のジェニー
TTITLE19=さいはて哀歌
EXTD=
EXTT0=
EXTT1=
EXTT2=
EXTT3=
EXTT4=
EXTT5=
EXTT6=
EXTT7=
EXTT8=
EXTT9=
EXTT10=
EXTT11=
EXTT12=
EXTT13=
EXTT14=
EXTT15=
EXTT16=
EXTT17=
EXTT18=
EXTT19=
PLAYORDER=
